<?xml version="1.0" standalone="no"?>
<!DOCTYPE svg PUBLIC "-//W3C//DTD SVG 20010904//EN"
 "http://www.w3.org/TR/2001/REC-SVG-20010904/DTD/svg10.dtd">
<svg version="1.0" xmlns="http://www.w3.org/2000/svg"
 width="200.000000pt" height="200.000000pt" viewBox="0 0 200.000000 200.000000"
 preserveAspectRatio="xMidYMid meet">

<g transform="translate(0.000000,200.000000) scale(0.100000,-0.100000)"
fill="#000000" stroke="none">
<path d="M933 1340 c-52 -31 -82 -93 -69 -144 15 -58 55 -85 345 -231 256
-127 287 -146 297 -173 16 -42 58 -53 87 -24 11 12 18 25 14 29 -4 3 -13 1
-19 -5 -7 -7 -22 -12 -35 -12 -18 0 -23 6 -23 25 0 23 -27 38 -299 174 -195
98 -306 159 -320 177 -28 35 -28 102 -1 137 60 76 188 43 201 -52 2 -14 10
-27 18 -29 11 -4 13 3 7 29 -19 98 -122 149 -203 99z"/>
<path d="M689 945 c-187 -99 -214 -116 -217 -139 -3 -19 -9 -26 -26 -26 -12 0
-27 5 -34 12 -6 6 -15 8 -19 5 -4 -4 3 -17 14 -29 29 -29 70 -18 87 24 11 26
43 46 212 135 209 110 221 117 207 126 -5 3 -106 -45 -224 -108z"/>
<path d="M622 823 c-21 -8 -34 -52 -21 -74 11 -22 47 -39 67 -32 21 9 13 23
-13 23 -15 0 -28 7 -32 16 -9 24 11 49 37 46 14 -1 20 3 18 10 -5 14 -35 20
-56 11z"/>
<path d="M710 776 l0 -56 35 0 c19 0 35 5 35 10 0 6 -11 10 -25 10 -22 0 -25
4 -25 39 0 22 -4 43 -10 46 -6 4 -10 -15 -10 -49z"/>
<path d="M818 818 c-30 -24 -31 -56 -4 -83 31 -31 41 -31 71 0 30 29 31 49 5
75 -23 23 -49 26 -72 8z m52 -23 c19 -23 8 -50 -20 -50 -19 0 -26 6 -28 24 -5
35 26 53 48 26z"/>
<path d="M920 820 c0 -5 5 -10 10 -10 6 0 10 -20 10 -45 0 -33 4 -45 15 -45
11 0 15 12 15 45 0 25 5 45 10 45 6 0 10 5 10 10 0 6 -16 10 -35 10 -19 0 -35
-4 -35 -10z"/>
<path d="M1016 823 c-3 -3 -6 -28 -6 -55 0 -36 4 -48 15 -48 8 0 15 9 15 20 0
14 7 20 21 20 12 0 23 -8 26 -20 10 -37 23 -20 23 29 0 51 -16 79 -22 39 -4
-31 -48 -39 -48 -9 0 21 -13 35 -24 24z"/>
<path d="M1140 770 c0 -38 4 -59 10 -55 6 3 10 28 10 55 0 27 -4 52 -10 55 -6
4 -10 -17 -10 -55z"/>
<path d="M1267 823 c-2 -5 -3 -18 -2 -30 2 -27 -7 -29 -25 -7 -8 8 -22 20 -32
25 -16 9 -18 5 -18 -41 0 -27 5 -50 10 -50 6 0 10 11 10 25 0 14 4 25 8 25 5
0 19 -11 32 -25 13 -14 27 -25 32 -25 11 0 10 97 -1 105 -5 3 -12 2 -14 -2z"/>
<path d="M1332 814 c-31 -22 -27 -73 7 -90 31 -16 65 -3 69 25 3 17 -2 21 -24
21 -23 0 -25 -2 -13 -16 11 -14 10 -15 -11 -12 -32 4 -39 42 -11 57 11 6 27 8
37 4 12 -4 15 -2 12 8 -7 20 -39 22 -66 3z"/>
<path d="M895 681 c-3 -5 0 -13 6 -17 8 -4 7 -9 -2 -15 -11 -7 -10 -9 3 -9 13
0 17 7 16 25 -2 25 -12 32 -23 16z"/>
<path d="M937 670 c3 -11 7 -20 8 -20 1 0 5 9 8 20 3 12 0 20 -8 20 -8 0 -11
-8 -8 -20z"/>
<path d="M974 675 c-4 -9 -2 -21 4 -27 15 -15 44 -1 40 19 -4 23 -36 29 -44 8z
m34 -7 c-6 -18 -28 -21 -28 -4 0 9 7 16 16 16 9 0 14 -5 12 -12z"/>
<path d="M1030 667 c0 -14 6 -24 15 -24 9 0 15 10 15 24 0 14 -6 23 -15 23 -9
0 -15 -9 -15 -23z"/>
<path d="M1080 665 c0 -17 5 -25 18 -25 13 0 14 2 4 9 -8 4 -14 12 -14 16 0 4
6 12 14 16 10 7 9 9 -4 9 -13 0 -18 -8 -18 -25z"/>
<path d="M493 672 c-58 -1 -103 -7 -103 -12 0 -6 85 -10 220 -10 140 0 220 4
220 10 0 6 -6 10 -12 10 -7 0 -60 2 -118 3 -58 1 -151 1 -207 -1z"/>
<path d="M1170 663 c0 -10 49 -13 220 -13 140 0 220 4 220 10 0 6 -67 10 -177
11 -98 1 -197 2 -220 3 -29 1 -43 -3 -43 -11z"/>
</g>
</svg>
