<?xml version="1.0" standalone="no"?>
<!DOCTYPE svg PUBLIC "-//W3C//DTD SVG 20010904//EN"
 "http://www.w3.org/TR/2001/REC-SVG-20010904/DTD/svg10.dtd">
<svg version="1.0" xmlns="http://www.w3.org/2000/svg"
 width="787.000000pt" height="452.000000pt" viewBox="0 0 787.000000 452.000000"
 preserveAspectRatio="xMidYMid meet">

<g transform="translate(0.000000,452.000000) scale(0.100000,-0.100000)"
fill="#000000" stroke="none">
<path d="M1714 4116 c-30 -30 -34 -40 -34 -85 0 -54 24 -116 56 -142 28 -23
54 -90 54 -140 l0 -46 -172 -21 c-95 -12 -292 -36 -438 -54 l-265 -32 3 -1505
c1 -827 3 -1506 5 -1507 1 -1 76 13 167 31 247 49 824 163 915 181 44 8 123
24 175 35 52 11 151 30 218 44 68 13 126 25 128 27 2 3 4 566 4 1253 l0 1248
-42 18 c-77 31 -292 121 -323 135 -39 18 -235 99 -302 126 l-53 21 0 53 c0 67
-11 96 -63 163 -36 46 -42 61 -42 102 0 135 152 131 186 -5 12 -48 29 -62 29
-23 -1 36 -35 101 -69 130 -47 39 -93 37 -137 -7z m192 -488 c57 -23 102 -43
100 -45 -2 -2 -32 1 -67 6 -35 6 -127 17 -204 26 -185 21 -198 26 -100 41 139
20 159 18 271 -28z"/>
<path d="M2992 2258 l3 -1373 28 -3 27 -3 0 1375 0 1376 -30 0 -30 0 2 -1372z"/>
<path d="M3385 3226 c-65 -30 -117 -88 -145 -162 -19 -51 -21 -73 -17 -164 5
-123 25 -178 86 -239 139 -139 376 -86 439 98 7 19 12 36 12 37 0 2 -15 4 -34
4 -30 0 -36 -4 -45 -33 -33 -99 -184 -150 -280 -96 -155 87 -159 394 -6 489
99 61 228 20 286 -93 17 -32 25 -38 47 -35 22 2 26 7 23 28 -10 74 -90 160
-166 179 -72 18 -144 13 -200 -13z"/>
<path d="M3903 3243 c-10 -4 -13 -79 -13 -329 l0 -324 185 0 185 0 0 30 0 30
-150 0 -150 0 0 295 c0 162 -3 295 -7 296 -5 0 -15 2 -23 3 -8 2 -21 1 -27 -1z"/>
<path d="M4513 3234 c-58 -21 -128 -94 -152 -159 -90 -240 41 -495 254 -495
184 0 314 193 277 411 -29 167 -131 260 -281 258 -31 0 -75 -7 -98 -15z m160
-55 c89 -24 146 -109 154 -229 13 -186 -68 -300 -214 -300 -128 0 -213 105
-213 264 0 128 57 230 145 261 49 17 78 18 128 4z"/>
<path d="M7302 3241 c-131 -34 -211 -175 -200 -354 7 -106 35 -172 98 -231 52
-49 98 -66 179 -66 80 0 130 19 182 70 53 50 79 118 79 202 l0 49 -122 -3
-123 -3 0 -25 c0 -25 1 -25 94 -28 l93 -3 -6 -41 c-26 -162 -223 -221 -341
-103 -59 58 -79 122 -73 234 5 104 37 174 100 218 55 38 147 44 206 14 42 -21
85 -69 97 -108 5 -17 14 -23 36 -23 34 0 37 15 13 63 -23 45 -72 95 -117 118
-42 22 -145 33 -195 20z"/>
<path d="M4965 3223 c2 -10 4 -24 4 -30 1 -10 28 -13 101 -13 l100 0 0 -295 0
-295 36 0 36 0 -2 288 c-1 158 -1 293 -1 300 1 9 28 12 101 12 l100 0 0 25 0
25 -239 0 c-222 0 -239 -1 -236 -17z"/>
<path d="M5572 2918 l3 -323 25 0 25 0 3 148 3 147 182 0 182 0 0 -147 0 -148
28 -3 27 -3 0 326 0 326 -27 -3 -28 -3 -3 -145 -2 -145 -180 3 -180 3 0 144 0
145 -30 0 -30 0 2 -322z"/>
<path d="M6222 2918 l3 -321 28 -4 27 -4 0 326 0 325 -30 0 -30 0 2 -322z"/>
<path d="M6452 2918 l3 -323 28 -3 27 -3 1 223 c0 191 3 303 8 317 0 2 39 -50
85 -115 45 -66 129 -184 185 -264 101 -144 125 -168 155 -157 14 6 16 46 16
327 l0 320 -30 0 -30 0 -2 -270 -3 -271 -190 270 c-182 258 -191 270 -223 271
l-32 0 2 -322z"/>
<path d="M3356 2276 c-114 -43 -161 -180 -87 -259 34 -37 77 -59 179 -90 46
-14 99 -38 118 -52 29 -22 34 -32 34 -68 0 -53 -21 -84 -74 -108 -90 -41 -201
-11 -230 61 -14 35 -20 40 -47 40 -31 0 -31 -1 -26 -37 9 -50 55 -105 108
-125 62 -24 173 -23 224 2 79 38 109 81 110 162 0 96 -47 139 -206 188 -117
36 -159 69 -159 123 0 72 77 124 167 114 55 -6 92 -31 116 -80 15 -30 24 -37
48 -37 36 0 37 17 8 77 -29 61 -89 95 -177 100 -43 2 -81 -2 -106 -11z"/>
<path d="M4617 2275 c-127 -47 -195 -174 -184 -344 7 -110 30 -172 88 -232
114 -118 312 -102 409 33 45 62 63 137 58 248 -5 109 -25 164 -83 228 -64 72
-193 102 -288 67z m193 -77 c124 -68 158 -294 65 -429 -82 -118 -259 -110
-338 15 -65 104 -53 292 24 375 66 71 164 86 249 39z"/>
<path d="M3800 1955 l0 -325 35 0 35 0 0 145 0 145 180 0 180 0 0 -145 0 -145
34 0 35 0 1 326 0 325 -36 -3 -36 -3 1 -142 2 -143 -181 0 -180 0 0 145 0 145
-35 0 -35 0 0 -325z"/>
<path d="M5130 1955 l0 -325 36 0 c31 0 35 3 34 23 -1 12 -2 67 -1 123 l1 101
78 -1 c111 -2 169 15 214 62 97 104 69 262 -57 321 -38 18 -63 21 -175 21
l-130 0 0 -325z m272 255 c94 -26 118 -162 43 -237 l-33 -33 -106 0 -106 0 0
140 0 140 83 0 c45 0 99 -5 119 -10z"/>
<path d="M3813 1448 c-9 -11 -63 -151 -63 -164 0 -15 22 0 30 21 7 19 17 25
40 25 23 0 33 -6 40 -25 9 -23 30 -35 30 -17 0 9 -57 163 -63 168 -2 3 -9 -1
-14 -8z m17 -52 c0 -8 2 -21 5 -28 4 -9 -2 -14 -16 -15 -15 -1 -19 2 -15 13 3
9 6 22 6 30 0 8 5 14 10 14 6 0 10 -6 10 -14z"/>
<path d="M3917 1454 c-11 -11 -9 -174 3 -174 9 0 16 78 11 120 -2 13 38 -37
81 -102 17 -26 39 -16 34 15 -3 12 -5 50 -5 85 -1 39 -5 61 -11 57 -5 -3 -10
-34 -10 -67 l0 -62 -34 50 c-57 82 -61 86 -69 78z"/>
<path d="M4179 1447 c-75 -38 -51 -167 31 -167 27 0 70 43 70 70 0 16 -6 20
-35 20 -19 0 -35 -4 -35 -10 0 -5 9 -10 20 -10 29 0 25 -28 -5 -42 -22 -10
-29 -9 -46 9 -23 23 -28 75 -9 98 18 21 58 19 72 -5 17 -26 30 -25 26 2 -4 31
-56 51 -89 35z"/>
<path d="M4355 1452 c-32 -6 -55 -43 -55 -89 0 -33 5 -46 26 -62 57 -45 114
-9 114 71 0 58 -34 91 -85 80z m55 -41 c18 -34 12 -78 -12 -95 -29 -20 -34
-20 -58 4 -24 24 -26 72 -4 94 21 22 61 20 74 -3z"/>
<path d="M4643 1452 c-29 -4 -45 -26 -41 -54 2 -17 14 -27 46 -38 27 -9 42
-20 42 -32 0 -24 -38 -33 -59 -14 -22 20 -31 20 -31 1 0 -21 43 -39 74 -31 56
14 54 78 -3 91 -33 7 -56 29 -46 45 10 16 53 12 64 -7 11 -21 26 -11 18 11 -8
20 -37 33 -64 28z"/>
<path d="M4917 1453 c-4 -3 -7 -21 -7 -40 0 -32 -1 -33 -40 -33 -39 0 -40 1
-40 35 0 24 -5 35 -14 35 -20 0 -18 -161 2 -168 8 -2 12 9 12 37 l0 41 40 0
40 0 0 -40 c0 -41 19 -58 21 -17 2 53 -1 150 -4 153 -2 2 -7 1 -10 -3z"/>
<path d="M3192 1438 c-6 -6 -12 -23 -12 -35 0 -19 10 -28 45 -43 48 -20 54
-30 30 -50 -15 -12 -55 -5 -55 11 0 5 -7 9 -15 9 -20 0 -19 -13 3 -33 38 -35
102 -14 102 33 0 25 -6 31 -45 46 -32 12 -45 22 -43 33 5 23 49 27 65 5 16
-22 31 -9 17 14 -13 21 -74 28 -92 10z"/>
<path d="M3320 1365 l0 -85 51 0 c35 0 49 4 47 12 -3 7 -20 12 -39 12 l-34 1
-3 73 c-4 101 -22 91 -22 -13z"/>
<path d="M3464 1442 c-54 -36 -37 -143 26 -157 76 -17 122 92 64 150 -16 16
-71 20 -90 7z m84 -45 c24 -50 -17 -108 -63 -91 -18 7 -36 60 -28 82 18 51 69
56 91 9z"/>
<path d="M3616 1428 c-9 -12 -16 -41 -16 -64 0 -34 5 -47 26 -63 15 -12 37
-21 50 -21 31 0 64 33 64 65 0 22 -4 25 -35 25 -19 0 -35 -4 -35 -10 0 -5 11
-10 25 -10 14 0 25 -4 25 -9 0 -11 -39 -41 -52 -41 -19 0 -48 42 -48 68 0 54
67 84 91 41 8 -15 14 -18 22 -10 7 7 5 16 -8 31 -26 29 -89 28 -109 -2z"/>
<path d="M4472 1368 l3 -83 44 -3 c48 -4 77 12 43 22 -11 4 -24 6 -28 5 -30
-5 -44 3 -44 26 0 23 4 25 40 25 22 0 40 5 40 10 0 6 -18 10 -40 10 -36 0 -40
3 -40 25 0 23 4 25 40 25 22 0 40 5 40 10 0 6 -23 10 -50 10 l-51 0 3 -82z"/>
<path d="M4970 1365 l0 -85 50 0 c34 0 50 4 50 13 0 8 -13 13 -37 12 -34 0
-38 3 -41 28 -3 26 -1 27 38 27 25 0 39 4 35 10 -3 6 -22 10 -41 10 -30 0 -34
3 -34 25 0 23 4 25 40 25 22 0 40 5 40 10 0 6 -22 10 -50 10 l-50 0 0 -85z"/>
<path d="M5100 1365 c0 -50 4 -85 10 -85 6 0 10 16 10 35 0 29 4 35 20 35 13
0 28 -12 38 -30 9 -16 20 -30 25 -30 11 0 9 8 -9 35 -15 22 -15 26 0 40 19 19
21 56 4 73 -7 7 -31 12 -55 12 l-43 0 0 -85z m85 55 c14 -22 -6 -50 -36 -50
-26 0 -29 3 -29 30 0 27 3 30 29 30 17 0 33 -5 36 -10z"/>
<path d="M5240 1370 l0 -80 53 2 c50 1 50 2 10 5 -40 4 -43 6 -43 34 0 27 3
29 36 29 19 0 33 4 29 9 -3 6 -19 8 -35 6 -27 -3 -30 -1 -30 26 0 26 3 29 34
29 19 0 38 5 41 10 4 6 -13 10 -44 10 l-51 0 0 -80z"/>
</g>
</svg>
