<?xml version="1.0" standalone="no"?>
<!DOCTYPE svg PUBLIC "-//W3C//DTD SVG 20010904//EN"
 "http://www.w3.org/TR/2001/REC-SVG-20010904/DTD/svg10.dtd">
<svg version="1.0" xmlns="http://www.w3.org/2000/svg"
 width="885.000000pt" height="1280.000000pt" viewBox="0 0 885.000000 1280.000000"
 preserveAspectRatio="xMidYMid meet">
<g transform="translate(0.000000,1280.000000) scale(0.100000,-0.100000)"
fill="#000000" stroke="none">
<path d="M3219 12755 c-20 -13 -101 -49 -180 -79 -312 -122 -379 -167 -445
-298 -50 -100 -131 -628 -186 -1218 -7 -74 -12 -261 -12 -415 1 -242 4 -296
22 -397 45 -245 157 -514 384 -923 137 -247 203 -371 223 -417 l15 -38 -95
-141 c-88 -129 -285 -392 -460 -614 -392 -497 -595 -806 -805 -1225 -355 -709
-603 -1504 -1225 -3925 -160 -625 -403 -1542 -441 -1666 -11 -37 366 -205
1050 -469 355 -136 468 -183 526 -217 74 -44 147 -120 266 -279 125 -167 201
-244 302 -303 186 -110 500 -153 883 -121 65 6 172 14 238 20 65 5 161 19 212
29 52 11 132 24 179 30 47 6 137 20 200 31 456 77 804 112 1590 156 217 12
381 15 620 11 424 -7 691 -34 1365 -136 176 -26 322 -47 324 -45 2 1 64 245
138 541 88 355 140 543 151 554 9 9 184 105 387 214 204 109 375 202 381 207
8 6 -18 97 -91 321 -57 171 -194 600 -305 952 -772 2454 -971 2958 -1504 3830
-104 169 -502 768 -812 1220 -358 524 -634 971 -634 1029 0 10 56 152 124 315
402 960 549 1403 617 1866 18 119 18 489 1 570 -34 157 -63 222 -170 385 -42
63 -86 140 -98 170 l-22 55 -354 222 c-312 196 -353 219 -356 200 -1 -12 11
-159 26 -327 l28 -305 -232 -345 c-609 -906 -712 -1055 -725 -1055 -9 0 -213
396 -529 1027 -283 566 -519 1028 -525 1027 -5 0 -26 -11 -46 -24z"/>
</g>
</svg>
